<svg width="226" height="226" viewBox="0 0 226 226" fill="none" xmlns="http://www.w3.org/2000/svg">
<path fill-rule="evenodd" clip-rule="evenodd" d="M113 226C175.408 226 226 175.408 226 113C226 50.5918 175.408 0 113 0C50.5918 0 0 50.5918 0 113C0 175.408 50.5918 226 113 226Z" fill="#41D5FB"/>
<mask id="mask0" mask-type="alpha" maskUnits="userSpaceOnUse" x="0" y="0" width="226" height="226">
<path fill-rule="evenodd" clip-rule="evenodd" d="M113 226C175.408 226 226 175.408 226 113C226 50.5918 175.408 0 113 0C50.5918 0 0 50.5918 0 113C0 175.408 50.5918 226 113 226Z" fill="white"/>
</mask>
<g mask="url(#mask0)">
<path fill-rule="evenodd" clip-rule="evenodd" d="M0.680149 23.1672L23.8229 39.2868L6.51545 44.1995L69.1976 33.3876L69.403 33.1065L69.7586 33.2909L70.616 33.143L70.4472 33.6478L94.5532 46.1447L122.362 -37.9999L133.019 -34.4283L104.599 51.3526L122.362 60.5638L140.792 111.009L147.771 109.825L209.534 120.678L231.883 170.266L260.842 137.201L269.314 144.425L236.657 181.709L245.973 204.035L238.201 215.322L228.202 191.363L190.269 234.672L190.393 235.002L201.092 259.742L193.321 271.029L183.321 247.069L140.464 296.002L136.034 284.163L178.546 235.627L156.38 186.472L102.434 176.995L92.0606 178.756L67.6324 193.35L67.6833 193.467L33.7738 213.452L46.177 241.849L35.1466 245.287L23.8064 219.327L-12.317 240.619L-18.351 231.137L19.2769 208.957L11.2692 190.62L28.6919 139.819L22.5238 136.347L-18.6445 89.0437L-9.62234 58.2781L-52.9353 65.7499L-54.9736 54.8046L-6.1304 46.381L0.680149 23.1672ZM59.0515 185.515L83.3804 170.98L67.5466 148.173L39.3757 144.142L23.5961 190.151L29.2443 203.082L59.0515 185.515ZM64.0985 136.439L72.1985 110.504L22.9134 119.478L30.0924 127.726L39.2625 132.885L64.0985 136.439ZM14.4197 109.719L-5.86695 86.4108L3.02583 56.0966L66.1685 45.2072L90.5044 56.9832L83.6083 75.4409L83.1122 75.578L80.8405 82.849L76.7287 93.8543L77.3081 94.1547L75.8976 98.6693L14.4197 109.719ZM88.5796 96.7089L93.3018 81.5918L100.55 62.1912L113.077 68.6861L121.204 90.9289L88.5796 96.7089ZM129.769 114.373L125.037 101.42L84.8828 108.543L75.4624 138.698L78.085 142.547L129.769 114.373ZM136.941 123.049L84.4149 151.839L94.7841 167.06L95.912 166.715L102.89 165.531L164.653 176.385L185.674 223.023L223.427 179.921L201.26 130.766L147.314 121.288L136.941 123.049Z" fill="white" fill-opacity="0.2"/>
<path opacity="0.296363" fill-rule="evenodd" clip-rule="evenodd" d="M132.63 91.097C133.746 87.6941 139.306 84.9949 145.012 85.0859C150.72 85.1783 154.461 88.0258 153.345 91.4287C152.228 94.8316 146.669 97.5308 140.961 97.4384C135.254 97.3474 131.513 94.4999 132.63 91.097M170.971 91.4573C174.237 81.4996 163.956 74.6196 148.526 74.3724C133.096 74.1253 118.435 80.6072 115.169 90.5636C111.738 101.026 133.521 120.127 133.521 120.127C133.521 120.127 167.54 101.92 170.971 91.4573" fill="#212121"/>
<path fill-rule="evenodd" clip-rule="evenodd" d="M123.989 78.5639C122.668 71.8673 128.648 66.0644 135.549 67.347C139.405 68.065 142.518 71.0842 143.257 74.8279C144.578 81.5245 138.598 87.3275 131.697 86.0436C127.841 85.3268 124.728 82.3076 123.989 78.5639M160.072 76.307C160.072 60.947 148.25 50.6406 133.624 50.6406C118.996 50.6406 107.174 60.947 107.174 76.307C107.174 89.3801 124.531 110.749 131.124 118.393C132.428 119.906 134.818 119.906 136.122 118.393C142.715 110.749 160.072 89.3801 160.072 76.307" fill="white"/>
</g>
</svg>
